<mxfile host="app.diagrams.net" modified="2021-08-23T05:48:13.238Z" agent="5.0 (Macintosh; Intel Mac OS X 10_15_7) AppleWebKit/537.36 (KHTML, like Gecko) Chrome/92.0.4515.131 Safari/537.36" etag="H-bUGlzMdzj9UaGZ5wiP" version="14.9.7" type="github">
  <diagram id="xiB8PAyE3oWgh1poIhj1" name="系统关系图">
    <mxGraphModel dx="1166" dy="653" grid="1" gridSize="10" guides="1" tooltips="1" connect="1" arrows="1" fold="1" page="1" pageScale="1" pageWidth="827" pageHeight="1169" math="0" shadow="0">
      <root>
        <mxCell id="0" />
        <mxCell id="1" parent="0" />
        <mxCell id="OjeX8EkqEAr4ZVBZ5d9P-3" value="金碟云" style="html=1;dropTarget=0;" vertex="1" parent="1">
          <mxGeometry x="30" y="320" width="120" height="60" as="geometry" />
        </mxCell>
        <mxCell id="OjeX8EkqEAr4ZVBZ5d9P-4" value="" style="shape=module;jettyWidth=8;jettyHeight=4;" vertex="1" parent="OjeX8EkqEAr4ZVBZ5d9P-3">
          <mxGeometry x="1" width="20" height="20" relative="1" as="geometry">
            <mxPoint x="-27" y="7" as="offset" />
          </mxGeometry>
        </mxCell>
        <mxCell id="OjeX8EkqEAr4ZVBZ5d9P-5" value="OA系统" style="html=1;dropTarget=0;" vertex="1" parent="1">
          <mxGeometry x="30" y="170" width="120" height="60" as="geometry" />
        </mxCell>
        <mxCell id="OjeX8EkqEAr4ZVBZ5d9P-6" value="" style="shape=module;jettyWidth=8;jettyHeight=4;" vertex="1" parent="OjeX8EkqEAr4ZVBZ5d9P-5">
          <mxGeometry x="1" width="20" height="20" relative="1" as="geometry">
            <mxPoint x="-27" y="7" as="offset" />
          </mxGeometry>
        </mxCell>
        <mxCell id="OjeX8EkqEAr4ZVBZ5d9P-27" style="edgeStyle=orthogonalEdgeStyle;rounded=0;orthogonalLoop=1;jettySize=auto;html=1;entryX=1;entryY=0.5;entryDx=0;entryDy=0;" edge="1" parent="1" source="OjeX8EkqEAr4ZVBZ5d9P-7" target="OjeX8EkqEAr4ZVBZ5d9P-5">
          <mxGeometry relative="1" as="geometry">
            <Array as="points">
              <mxPoint x="250" y="200" />
            </Array>
          </mxGeometry>
        </mxCell>
        <mxCell id="OjeX8EkqEAr4ZVBZ5d9P-28" style="edgeStyle=orthogonalEdgeStyle;rounded=0;orthogonalLoop=1;jettySize=auto;html=1;entryX=1;entryY=0.5;entryDx=0;entryDy=0;" edge="1" parent="1" source="OjeX8EkqEAr4ZVBZ5d9P-7" target="OjeX8EkqEAr4ZVBZ5d9P-3">
          <mxGeometry relative="1" as="geometry" />
        </mxCell>
        <mxCell id="OjeX8EkqEAr4ZVBZ5d9P-7" value="雪润" style="html=1;dropTarget=0;" vertex="1" parent="1">
          <mxGeometry x="220" y="320" width="120" height="60" as="geometry" />
        </mxCell>
        <mxCell id="OjeX8EkqEAr4ZVBZ5d9P-8" value="" style="shape=module;jettyWidth=8;jettyHeight=4;" vertex="1" parent="OjeX8EkqEAr4ZVBZ5d9P-7">
          <mxGeometry x="1" width="20" height="20" relative="1" as="geometry">
            <mxPoint x="-27" y="7" as="offset" />
          </mxGeometry>
        </mxCell>
        <mxCell id="OjeX8EkqEAr4ZVBZ5d9P-9" value="CC平台" style="html=1;dropTarget=0;verticalAlign=top;" vertex="1" parent="1">
          <mxGeometry x="440" y="100" width="180" height="280" as="geometry" />
        </mxCell>
        <mxCell id="OjeX8EkqEAr4ZVBZ5d9P-10" value="" style="shape=module;jettyWidth=8;jettyHeight=4;" vertex="1" parent="OjeX8EkqEAr4ZVBZ5d9P-9">
          <mxGeometry x="1" width="20" height="20" relative="1" as="geometry">
            <mxPoint x="-27" y="7" as="offset" />
          </mxGeometry>
        </mxCell>
        <mxCell id="OjeX8EkqEAr4ZVBZ5d9P-13" value="CC-奥布斯" style="html=1;dropTarget=0;" vertex="1" parent="1">
          <mxGeometry x="450" y="220" width="120" height="60" as="geometry" />
        </mxCell>
        <mxCell id="OjeX8EkqEAr4ZVBZ5d9P-14" value="" style="shape=module;jettyWidth=8;jettyHeight=4;" vertex="1" parent="OjeX8EkqEAr4ZVBZ5d9P-13">
          <mxGeometry x="1" width="20" height="20" relative="1" as="geometry">
            <mxPoint x="-27" y="7" as="offset" />
          </mxGeometry>
        </mxCell>
        <mxCell id="OjeX8EkqEAr4ZVBZ5d9P-26" style="edgeStyle=orthogonalEdgeStyle;rounded=0;orthogonalLoop=1;jettySize=auto;html=1;entryX=0.5;entryY=0;entryDx=0;entryDy=0;" edge="1" parent="1" source="OjeX8EkqEAr4ZVBZ5d9P-16" target="OjeX8EkqEAr4ZVBZ5d9P-7">
          <mxGeometry relative="1" as="geometry" />
        </mxCell>
        <mxCell id="OjeX8EkqEAr4ZVBZ5d9P-16" value="CC-合作伙伴/客户" style="html=1;dropTarget=0;" vertex="1" parent="1">
          <mxGeometry x="450" y="140" width="120" height="60" as="geometry" />
        </mxCell>
        <mxCell id="OjeX8EkqEAr4ZVBZ5d9P-17" value="" style="shape=module;jettyWidth=8;jettyHeight=4;" vertex="1" parent="OjeX8EkqEAr4ZVBZ5d9P-16">
          <mxGeometry x="1" width="20" height="20" relative="1" as="geometry">
            <mxPoint x="-27" y="7" as="offset" />
          </mxGeometry>
        </mxCell>
        <mxCell id="OjeX8EkqEAr4ZVBZ5d9P-29" style="edgeStyle=orthogonalEdgeStyle;rounded=0;orthogonalLoop=1;jettySize=auto;html=1;entryX=1;entryY=0.5;entryDx=0;entryDy=0;startArrow=classic;startFill=1;" edge="1" parent="1" source="OjeX8EkqEAr4ZVBZ5d9P-18" target="OjeX8EkqEAr4ZVBZ5d9P-7">
          <mxGeometry relative="1" as="geometry" />
        </mxCell>
        <mxCell id="OjeX8EkqEAr4ZVBZ5d9P-33" style="edgeStyle=orthogonalEdgeStyle;rounded=0;orthogonalLoop=1;jettySize=auto;html=1;entryX=0.5;entryY=0;entryDx=0;entryDy=0;startArrow=none;startFill=0;strokeColor=#000000;" edge="1" parent="1" source="OjeX8EkqEAr4ZVBZ5d9P-18" target="OjeX8EkqEAr4ZVBZ5d9P-31">
          <mxGeometry relative="1" as="geometry" />
        </mxCell>
        <mxCell id="OjeX8EkqEAr4ZVBZ5d9P-18" value="CC-后台管理" style="html=1;dropTarget=0;" vertex="1" parent="1">
          <mxGeometry x="450" y="300" width="120" height="60" as="geometry" />
        </mxCell>
        <mxCell id="OjeX8EkqEAr4ZVBZ5d9P-19" value="" style="shape=module;jettyWidth=8;jettyHeight=4;" vertex="1" parent="OjeX8EkqEAr4ZVBZ5d9P-18">
          <mxGeometry x="1" width="20" height="20" relative="1" as="geometry">
            <mxPoint x="-27" y="7" as="offset" />
          </mxGeometry>
        </mxCell>
        <mxCell id="OjeX8EkqEAr4ZVBZ5d9P-31" value="DF" style="html=1;dropTarget=0;" vertex="1" parent="1">
          <mxGeometry x="450" y="450" width="120" height="60" as="geometry" />
        </mxCell>
        <mxCell id="OjeX8EkqEAr4ZVBZ5d9P-32" value="" style="shape=module;jettyWidth=8;jettyHeight=4;" vertex="1" parent="OjeX8EkqEAr4ZVBZ5d9P-31">
          <mxGeometry x="1" width="20" height="20" relative="1" as="geometry">
            <mxPoint x="-27" y="7" as="offset" />
          </mxGeometry>
        </mxCell>
      </root>
    </mxGraphModel>
  </diagram>
</mxfile>
